<?xml version="1.0" encoding="iso-8859-1"?>
<!-- Uploaded to: SVG Repo, www.svgrepo.com, Generator: SVG Repo Mixer Tools -->
<svg version="1.1" id="Layer_1" xmlns="http://www.w3.org/2000/svg" xmlns:xlink="http://www.w3.org/1999/xlink" 
	 viewBox="0 0 512 512" xml:space="preserve">
<path style="fill:#F3D49D;" d="M255.999,512c-54.408,0-104.669-32.348-141.525-91.088c-32.732-52.166-51.506-119.767-51.506-185.47
	c0-60.035,15.432-112.002,44.629-150.285C141.518,40.68,192.834,17.17,255.999,17.17c63.164,0,114.481,23.51,148.403,67.988
	c29.195,38.282,44.627,90.25,44.627,150.285c0,65.702-18.773,133.303-51.505,185.47C360.669,479.652,310.407,512,255.999,512z"/>
<path style="fill:#EEBF70;" d="M255.999,512c0-54.114,0-416.996,0-494.83c63.164,0,114.481,23.51,148.403,67.988
	c29.195,38.282,44.627,90.25,44.627,150.285c0,65.702-18.773,133.303-51.505,185.47C360.669,479.652,310.407,512,255.999,512z"/>
<polygon style="fill:#8B8B8B;" points="331.925,163.059 298.272,163.059 213.727,163.059 180.074,163.059 180.074,0 331.925,0 "/>
<polygon style="fill:#444444;" points="331.925,163.059 315.099,163.059 272.829,163.059 256.003,163.059 256.003,0 331.925,0 "/>
<circle style="fill:#F0C838;" cx="255.999" cy="75.72" r="21.645"/>
<path style="fill:#E79C25;" d="M277.645,75.719c0,11.954-9.691,21.645-21.645,21.645c0-15.835,0-33.043,0-43.29
	C267.954,54.075,277.645,63.765,277.645,75.719z"/>
<path style="fill:#6F6F6F;" d="M502.504,358.098H9.495V146.235h493.01v211.863H502.504z"/>
<path style="fill:#444444;" d="M502.504,358.098H256.003V146.235h246.501V358.098z"/>
<path style="fill:#92E5EA;" d="M109.37,252.167L109.37,252.167c0-17.339,14.057-31.396,31.396-31.396h230.467
	c17.339,0,31.396,14.057,31.396,31.396l0,0c0,17.339-14.057,31.396-31.396,31.396H140.766
	C123.427,283.562,109.37,269.506,109.37,252.167z"/>
<path style="fill:#79BBBC;" d="M371.233,220.771H255.999v62.791h115.233c17.339,0,31.396-14.057,31.396-31.396
	C402.628,234.828,388.572,220.771,371.233,220.771z"/>
<rect x="205.523" y="395.13" style="fill:#6F6F6F;" width="100.942" height="33.391"/>
<rect x="255.999" y="395.13" style="fill:#444444;" width="50.465" height="33.391"/>
</svg>